<svg xmlns="http://www.w3.org/2000/svg" width="486.522" height="100.669" viewBox="0 0 486.522 100.669">
  <g id="hecochain-logo" transform="translate(50.017 -65.293)">
    <g id="text" transform="translate(0 62)">
      <path id="Path_175" data-name="Path 175" d="M59.674,6V31.315H34.01V9.282A3.315,3.315,0,0,0,30.663,6H22V66.6a3.316,3.316,0,0,0,3.349,3.282H34.01V41.6H59.674V66.6a3.316,3.316,0,0,0,3.348,3.282h8.661V9.282A3.315,3.315,0,0,0,68.336,6Z" transform="translate(56.074 15.293)" fill="#2d3338"/>
      <path id="Path_176" data-name="Path 176" d="M69.56,29.432H49.776A14.122,14.122,0,0,1,52.809,22.2c1.69-1.946,4.106-2.893,7.37-2.893a9.09,9.09,0,0,1,4.187.9,8.309,8.309,0,0,1,2.87,2.379,10.934,10.934,0,0,1,1.75,3.574A15.658,15.658,0,0,1,69.56,29.432Zm9.661-5.989a19.817,19.817,0,0,0-3.831-7.051A17.879,17.879,0,0,0,69.1,11.7,20.912,20.912,0,0,0,60.44,10a22.984,22.984,0,0,0-9.948,2.021,20.163,20.163,0,0,0-7.04,5.454,22.557,22.557,0,0,0-4.131,8.037A34.951,34.951,0,0,0,38,35.284a33.458,33.458,0,0,0,1.368,9.793A20.634,20.634,0,0,0,43.8,52.964a20.19,20.19,0,0,0,7.687,5.171,26.3,26.3,0,0,0,12.076,1.349c7.61-1.035,10.943-4.017,13.2-7.162,3.994-5.56,2.853-6.52,2.853-6.52H70.869c-1,0-3.046,4.22-9.515,4.22-4.431,0-6.156-.712-8.357-2.8-2-1.893-3.153-4.888-3.419-8.917H79.431c.828,0,1.03-.557,1.064-1.393A38.559,38.559,0,0,0,79.221,23.443Z" transform="translate(96.855 25.488)" fill="#2d3338" fill-rule="evenodd"/>
      <path id="Path_177" data-name="Path 177" d="M76.773,10C62.187,10,52,20.479,52,35.482c0,13.8,10.307,24.2,23.96,24.2,9.228,0,14.94-3.79,14.94-7.3v-8.1h-.588a19.042,19.042,0,0,1-13.136,4.953c-8.564,0-13.477-5.5-13.477-15.1,0-8.054,5.408-13.683,13.141-13.683,3.8,0,9.74.4,13.344,4.962l.854.027V16.009C91.037,12.752,84.5,10,76.773,10Z" transform="translate(132.539 25.488)" fill="#2d3338" fill-rule="evenodd"/>
      <path id="Path_178" data-name="Path 178" d="M98.977,39.067c0,5.924-4.909,9.865-10.907,9.865s-10.912-3.941-10.912-9.865V30.616c0-5.924,4.909-9.865,10.912-9.865s10.907,3.941,10.907,9.865ZM88.069,10C75.379,10,65,18.96,65,31.481v6.775c0,12.521,10.379,21.427,23.069,21.427s23.065-8.906,23.065-21.427V31.481C111.135,18.96,100.756,10,88.069,10Z" transform="translate(165.674 25.488)" fill="#2d3338" fill-rule="evenodd"/>
      <path id="Path_179" data-name="Path 179" d="M108.772,10.707c-4.572,0-9.649,1.085-10.49,3.413v-1.1A3.035,3.035,0,0,0,95.232,10H86V56.666a3.033,3.033,0,0,0,3.049,3.017h9.144V32.534c0-8.429,4.93-11.269,8.695-11.269,5.293,0,9.595,3.106,9.595,10.914V56.666a3.033,3.033,0,0,0,3.049,3.017h9.054V31.646C128.586,18.07,121.235,10.707,108.772,10.707Z" transform="translate(219.199 25.488)" fill="#2d3338" fill-rule="evenodd"/>
      <path id="Path_180" data-name="Path 180" d="M131.939,6v7.662a3.427,3.427,0,0,1-3.57,3.276c-2-.009-4.5-.013-6.611-.013-5.391,0-8.482,2.479-8.482,8.906v.706h18.663v7.649a3.43,3.43,0,0,1-3.567,3.276h-15.1V66.6a3.432,3.432,0,0,1-3.567,3.276H100V24.362C100,12.8,106.587,6,120.157,6c5.249,0,9.049.134,11.779,0Z" transform="translate(254.882 15.293)" fill="#2d3338" fill-rule="evenodd"/>
      <path id="Path_181" data-name="Path 181" d="M143.976,39.067c0,5.924-4.908,9.865-10.906,9.865s-10.913-3.941-10.913-9.865V30.616c0-5.924,4.908-9.865,10.913-9.865s10.906,3.941,10.906,9.865ZM133.071,10C120.38,10,110,18.96,110,31.481v6.775c0,12.521,10.38,21.427,23.071,21.427s23.064-8.906,23.064-21.427V31.481C156.135,18.96,145.754,10,133.071,10Z" transform="translate(280.371 25.488)" fill="#2d3338" fill-rule="evenodd"/>
      <path id="Path_182" data-name="Path 182" d="M92.421,30.507V9.347A3.408,3.408,0,0,0,88.96,6H80V66.528a3.413,3.413,0,0,0,3.465,3.351h8.955V30.507Z" transform="translate(203.906 15.293)" fill="#2d3338" fill-rule="evenodd"/>
    </g>
    <g id="logo" transform="translate(-303.24 -168.367)">
      <g id="symbol" transform="translate(253.223 233.659)">
        <path id="Path_168" data-name="Path 168" d="M99.135,48.8A50.483,50.483,0,0,0,48.8,99.135h0a50.483,50.483,0,0,0,50.335,50.335h0a50.483,50.483,0,0,0,50.335-50.335h0A50.483,50.483,0,0,0,99.135,48.8Z" transform="translate(-48.8 -48.8)" fill="#01943f"/>
        <g id="Group_20" data-name="Group 20" transform="translate(25.757 23.516)">
          <g id="Group_16" data-name="Group 16" transform="translate(0.069 0)">
            <path id="Path_169" data-name="Path 169" d="M87.211,83.868a.526.526,0,0,1,.108-.049c.4-.187.806-.364,1.209-.521V75.345a2.622,2.622,0,0,0-2.615-2.625H75.07V95.548A26.152,26.152,0,0,1,87.211,83.868Z" transform="translate(-75.07 -72.72)" fill="#fff"/>
          </g>
          <g id="Group_17" data-name="Group 17" transform="translate(0 11.542)">
            <path id="Path_170" data-name="Path 170" d="M98.25,97.968h2.418a6.348,6.348,0,0,0,6.351-6.351v-6.8c-1.308-.226-7.285-.354-8.671-.354a23.332,23.332,0,0,0-23.29,21.707c-.039.541-.059,1.081-.059,1.632s.02,1.091.059,1.632h0v14.511a2.614,2.614,0,0,0,2.615,2.615H88.518V107.671a9.723,9.723,0,0,1,9.733-9.7Z" transform="translate(-75 -84.46)" fill="#fff"/>
          </g>
          <g id="Group_18" data-name="Group 18" transform="translate(35.647 30.81)">
            <path id="Path_171" data-name="Path 171" d="M112.577,115.739a.527.527,0,0,1-.108.049c-.4.187-.806.364-1.209.521v7.953a2.622,2.622,0,0,0,2.615,2.625h10.834V104.06A26.175,26.175,0,0,1,112.577,115.739Z" transform="translate(-111.26 -104.06)" fill="#fff"/>
          </g>
          <g id="Group_19" data-name="Group 19" transform="translate(17.135)">
            <path id="Path_172" data-name="Path 172" d="M124.391,89.846h0V75.335a2.614,2.614,0,0,0-2.615-2.615H110.932V91.605a9.721,9.721,0,0,1-9.723,9.7H98.781a6.348,6.348,0,0,0-6.351,6.351v6.8c1.308.226,7.285.354,8.671.354.157,0,.3,0,.462-.01a23.125,23.125,0,0,0,9.4-2.173l.059-.029A23.3,23.3,0,0,0,124.4,93.1c.039-.541.059-1.081.059-1.632S124.43,90.386,124.391,89.846Z" transform="translate(-92.43 -72.72)" fill="#fff"/>
          </g>
        </g>
      </g>
    </g>
  </g>
</svg>
